<svg xmlns="http://www.w3.org/2000/svg" width="324" height="110.8300395256917" viewBox="0 0 324 110.8300395256917" class="editor-view__logo-preview" data-v-719f541d="" data-v-42122950=""><svg id="mark" viewBox="0 0 506 701" width="80" height="110.8300395256917" x="0" y="0" data-v-719f541d="" style="fill: rgb(250, 144, 0);"><rect x="0" y="0" width="100%" height="100%" fill="none" data-v-719f541d=""></rect><g data-v-719f541d="">
	<path xmlns="http://www.w3.org/2000/svg" d="M 226 10 L 226 15 215 15 L 204 15 204 10.500 L 204 6 199.450 6 L 194.900 6 195.200 10.747 L 195.500 15.493 187.500 17.069 C 178.035 18.934, 172 20.840, 172 21.966 C 172 22.412, 170.422 23.074, 168.492 23.435 C 166.401 23.828, 164.354 25.057, 163.421 26.480 C 161.072 30.065, 162.899 32.580, 168.620 33.637 C 171.791 34.223, 173.889 35.305, 175.159 37.008 C 176.940 39.397, 186.323 61.072, 185.766 61.510 C 185.620 61.625, 165.700 62.237, 141.500 62.869 C 117.300 63.501, 93 64.513, 87.500 65.117 C 73.562 66.648, 59.914 70.269, 50.500 74.934 C 39.270 80.498, 35.641 83.840, 31.613 92.329 C 29.069 97.691, 27.207 100.178, 24.359 102.021 C 22.251 103.385, 20.376 105.288, 20.190 106.250 C 19.901 107.755, 20.670 108, 25.677 108.002 C 34.475 108.004, 37.239 109.924, 47.737 123.326 C 52.831 129.831, 57 135.512, 57 135.951 C 57 137.217, 51.439 138, 42.446 138 C 33.258 138, 30.925 139.156, 31.720 143.316 C 32.147 145.550, 31.795 145.801, 27.342 146.440 C 19.087 147.625, 15.241 149.156, 11.928 152.574 C 7.946 156.682, 8.510 159, 13.490 159 C 16.227 159, 17.260 159.517, 17.990 161.250 C 19.587 165.046, 24.836 184.079, 31.965 211.929 C 46.204 267.552, 51.459 287.534, 60.515 320.500 C 65.652 339.200, 71.268 360.107, 72.995 366.961 C 74.723 373.814, 76.841 380.616, 77.703 382.075 C 79.197 384.603, 78.960 385.761, 72.676 406.614 C 69.049 418.651, 62.425 440.875, 57.955 456 C 53.485 471.125, 48.317 488.450, 46.470 494.500 C 34.862 532.519, 28.127 556.281, 21.927 581.079 C 18.056 596.568, 14.189 610.986, 13.335 613.120 C 11.910 616.682, 11.468 617, 7.950 617 C 5.843 617, 3.869 617.403, 3.565 617.895 C 3.260 618.388, 10.996 625.448, 20.756 633.585 C 42.870 652.022, 65.594 674.581, 69.022 681.500 C 72.643 688.807, 73.863 690, 77.714 690 C 79.586 690, 80.865 690.409, 80.556 690.910 C 80.244 691.415, 83.893 692.086, 88.747 692.416 C 93.561 692.744, 105.150 693.684, 114.500 694.505 C 123.850 695.326, 142.975 696.441, 157 696.982 C 171.025 697.524, 188.125 698.226, 195 698.543 C 220.241 699.705, 361.344 696.400, 374.232 694.345 C 379.131 693.564, 378.249 692.423, 372.114 691.610 C 369.402 691.250, 364.597 690.066, 361.435 688.978 C 358.274 687.890, 354.584 687, 353.235 687 C 351.087 687, 350.865 686.674, 351.443 684.372 C 353.486 676.232, 374.880 652.987, 398 633.786 C 404.325 628.534, 410.809 622.846, 412.409 621.148 C 415.540 617.823, 415.225 617.352, 409.500 616.793 C 406.706 616.520, 406.273 615.890, 403.187 607.605 C 400.612 600.689, 399.098 593.456, 396.383 575.105 C 391.948 545.119, 389.293 532.238, 382.553 508 C 379.570 497.275, 373.471 475.225, 368.999 459 C 364.527 442.775, 358.592 421.625, 355.811 412 C 346.722 380.543, 346.830 389.503, 354.961 341.460 C 362.192 298.734, 365.728 278.765, 366.568 275.904 C 366.973 274.527, 370.113 274.229, 389.459 273.730 L 411.882 273.152 415.276 276.326 C 421.136 281.806, 431.461 284.324, 463.500 288.085 C 489.766 291.169, 493.680 290.096, 496.206 279.116 C 498.283 270.088, 497.919 226.004, 495.667 214 C 491.960 194.235, 491.192 193.777, 462.500 194.226 C 439.177 194.590, 437.941 194.886, 432.137 201.497 C 428.555 205.576, 423.078 216.061, 420.643 223.500 C 419.743 226.250, 417.640 234.575, 415.970 242 C 411.435 262.163, 410.267 262.935, 384.250 262.976 C 370.088 262.998, 369 262.868, 369 261.156 C 369 257.441, 386.569 176.090, 390.024 163.808 C 391.189 159.664, 393.434 158.484, 398.386 159.413 C 400.399 159.790, 402.295 159.505, 403.467 158.648 C 405.282 157.320, 405.273 157.178, 403.153 153.747 C 400.659 149.712, 396.588 147.527, 389.748 146.553 C 385.434 145.939, 385.091 145.698, 386.033 143.938 C 387.060 142.019, 385.875 138.099, 384.215 137.925 C 382.603 137.756, 303.922 137.318, 218 136.999 C 130.942 136.677, 128.199 136.613, 161.500 135.687 C 184.558 135.046, 224.086 135.063, 277.347 135.738 C 321.812 136.301, 358.972 136.559, 359.923 136.310 C 360.875 136.061, 362.473 134.427, 363.475 132.679 C 366.208 127.911, 379.978 111.082, 382.055 109.971 C 383.052 109.437, 387.273 109, 391.434 109 C 397.979 109, 398.998 108.764, 398.985 107.250 C 398.961 104.595, 397.762 103.224, 394.126 101.695 C 391.494 100.588, 390.333 99.113, 388.450 94.478 C 382.311 79.374, 363.444 69.446, 333.394 65.507 C 323.188 64.169, 270.317 62.053, 246.128 62.015 C 238.770 62.003, 236.968 61.731, 237.745 60.750 C 238.290 60.063, 239.531 57.025, 240.503 54 C 242.978 46.302, 244.587 43.404, 249.115 38.491 C 251.857 35.516, 254.194 34.001, 256.780 33.521 C 261.100 32.720, 264 30.456, 264 27.887 C 264 24.446, 251.159 18.626, 237.750 15.989 L 232 14.858 232 9.929 C 232 5.119, 231.928 5, 229 5 C 226.067 5, 226 5.111, 226 10 M 230.813 19.683 C 231.534 19.972, 232.397 19.936, 232.729 19.604 C 233.061 19.272, 232.471 19.036, 231.417 19.079 C 230.252 19.127, 230.015 19.364, 230.813 19.683 M 235.269 19.693 C 236.242 19.947, 237.592 19.930, 238.269 19.656 C 238.946 19.382, 238.150 19.175, 236.500 19.195 C 234.850 19.215, 234.296 19.439, 235.269 19.693 M 205.500 29.881 C 202.766 30.589, 202.988 30.714, 208 31.296 C 213.126 31.891, 237.228 33.288, 244.907 33.435 C 249.367 33.520, 250.025 31.420, 245.793 30.606 C 240.554 29.597, 208.806 29.026, 205.500 29.881 M 232.229 41.837 C 231.530 42.281, 230.678 45.641, 230.336 49.303 C 229.624 56.933, 230.599 56.395, 215.545 57.451 C 208.593 57.939, 204.684 59.133, 206.067 60.347 C 206.305 60.556, 212.401 61.027, 219.614 61.393 L 232.729 62.059 233.298 58.280 C 233.611 56.201, 234.765 51.462, 235.863 47.750 L 237.859 41 235.679 41.015 C 234.481 41.024, 232.928 41.394, 232.229 41.837 M 201.500 90.682 C 195.450 90.823, 177.900 91.406, 162.500 91.977 C 147.100 92.549, 122.350 93.453, 107.500 93.986 C 75.016 95.153, 43.584 96.965, 39.584 97.901 C 37.980 98.277, 49.230 98.402, 64.584 98.179 C 79.938 97.956, 121.300 98.278, 156.500 98.894 C 247.409 100.485, 376.033 101.459, 379.520 100.584 C 384.051 99.447, 381.232 98.443, 365.429 95.564 C 357.768 94.169, 348.350 92.354, 344.500 91.531 C 338.649 90.280, 327.242 90.067, 275 90.230 C 240.625 90.337, 207.550 90.540, 201.500 90.682 M 207.262 105.921 C 179.632 106.317, 156.719 106.947, 156.346 107.321 C 155.972 107.694, 164.179 108.008, 174.583 108.017 C 196.741 108.037, 235.027 109.564, 250 111.025 C 273.099 113.280, 289.532 117.014, 316 126.024 C 325.625 129.301, 336.973 132.488, 341.217 133.107 L 348.934 134.233 354.136 128.542 C 363.046 118.793, 370.990 107.657, 369.850 106.516 C 368.994 105.661, 254.594 105.242, 207.262 105.921 M 49 145.882 C 46.142 146.387, 45.443 146.990, 45.191 149.171 C 44.898 151.704, 45.155 151.873, 50.191 152.464 C 53.111 152.806, 129.075 152.954, 219 152.793 C 396.487 152.475, 387.267 152.792, 379.102 147.290 L 375.704 145 214.102 145.132 C 125.221 145.204, 50.925 145.542, 49 145.882 M 32.750 159.654 C 30.473 160.295, 30.475 160.309, 34.101 174.427 C 56.154 260.274, 86.776 375.077, 87.950 376.310 C 88.374 376.756, 90.721 376.981, 93.165 376.810 L 97.609 376.500 90.442 349 C 86.500 333.875, 80.033 308.900, 76.072 293.500 C 72.110 278.100, 64.812 250.200, 59.854 231.500 C 54.896 212.800, 48.652 189.239, 45.979 179.143 C 43.307 169.047, 40.948 160.614, 40.737 160.404 C 40.013 159.680, 34.498 159.162, 32.750 159.654 M 45.789 159.544 C 45.487 159.847, 46.115 162.886, 47.186 166.297 C 50.275 176.142, 75.158 270.579, 92.031 336.500 C 97.099 356.300, 101.630 373.514, 102.100 374.754 L 102.954 377.008 217.145 376.754 L 331.337 376.500 340.043 324.500 C 348.991 271.059, 349.977 265.549, 361.877 202.500 C 365.718 182.150, 369.004 164.150, 369.180 162.500 L 369.500 159.500 207.920 159.247 C 119.051 159.108, 46.092 159.242, 45.789 159.544 M 450 211.076 C 450 213.499, 457.316 225.687, 471.715 247.250 C 479.703 259.212, 486.327 269, 486.435 269 C 486.982 269, 477.857 226.586, 476.104 220.986 C 472.838 210.549, 472.845 210.554, 460.582 210.159 C 452.567 209.901, 450 210.123, 450 211.076 M 212.299 340.624 C 199.241 347.063, 207.103 366.282, 221.081 362.094 C 231.441 358.990, 231.627 344.667, 221.364 340.379 C 217.220 338.647, 216.255 338.673, 212.299 340.624 M 105.508 387.246 C 105.215 388.486, 98.710 423.925, 91.052 466 C 71.231 574.903, 64.838 609.154, 63.395 614.174 C 62.946 615.734, 73.789 615.855, 222.574 615.952 L 382.235 616.057 381.754 613.279 C 373.567 565.979, 349.570 453.072, 337.805 406.500 L 332.500 385.500 219.270 385.246 L 106.040 384.991 105.508 387.246 M 215 427.289 C 212.824 428.384, 212.435 429.375, 212 434.926 L 211.500 441.305 204.688 443.166 C 183.720 448.894, 167.013 460.589, 156.540 476.869 C 151.277 485.050, 148.721 490.804, 145.930 500.749 C 144.742 504.983, 143.075 508.956, 142.226 509.577 C 139.144 511.830, 142.300 534.337, 147.563 547.643 C 157.768 573.443, 179.081 592.221, 203.716 597.118 C 208.979 598.164, 210.373 598.850, 211.096 600.752 C 213.540 607.181, 232 607.958, 232 601.632 C 232 600.898, 234.761 599.934, 238.884 599.227 C 254.916 596.477, 271.763 588, 282.634 577.212 C 293.875 566.058, 302.245 549.416, 305.374 532 C 307.778 518.616, 307.846 511, 305.559 511 C 303.637 511, 303.187 510.133, 300.991 502.210 C 294.202 477.713, 278.672 458.946, 256.423 448.357 C 251.431 445.981, 243.781 443.198, 239.423 442.172 L 231.500 440.307 231.199 435.186 C 230.957 431.073, 230.389 429.664, 228.314 428.032 C 225.341 425.694, 218.883 425.333, 215 427.289 M 217 461.941 C 217 481.314, 217.356 492, 218 492 C 218.644 492, 219 481.520, 219 462.559 C 219 444.010, 218.630 432.889, 218 432.500 C 217.342 432.093, 217 442.156, 217 461.941 M 223.639 433.694 C 222.813 434.520, 222.820 479.861, 223.648 486.750 C 225.119 498.994, 226 490.117, 226 463.059 C 226 436.803, 225.593 431.740, 223.639 433.694 M 206.500 458.762 C 184.870 461.166, 164.115 478.387, 156.078 500.598 C 152.726 509.861, 152.498 511, 153.997 511 C 154.546 511, 157.713 505.343, 161.034 498.429 C 166.180 487.717, 168.071 484.869, 173.811 479.179 C 181.750 471.310, 190.800 465.775, 200.500 462.857 C 210.235 459.928, 211.513 459.418, 210.439 458.890 C 209.923 458.636, 208.150 458.579, 206.500 458.762 M 205.500 473.163 C 197.481 474.671, 185.191 481.220, 178.755 487.415 C 173.266 492.699, 167.776 500.344, 165.229 506.250 C 164.162 508.723, 164.242 509, 166.021 509 C 167.110 509, 168 508.526, 168 507.947 C 168 506.139, 172.701 499.870, 178.721 493.653 C 185.817 486.323, 193.747 481.070, 204.110 476.833 C 208.449 475.058, 212 473.245, 212 472.803 C 212 472.361, 211.662 472.050, 211.250 472.112 C 210.838 472.173, 208.250 472.647, 205.500 473.163 M 213 496 C 213 496.550, 213.450 497, 214 497 C 214.550 497, 215 496.550, 215 496 C 215 495.450, 214.550 495, 214 495 C 213.450 495, 213 495.450, 213 496 M 217.007 503.593 C 215.086 504.426, 212.455 506.096, 211.160 507.304 C 208.279 509.991, 205 516.196, 205 518.960 C 205 520.965, 204.515 521, 177.082 521 C 161.727 521, 148.452 520.727, 147.582 520.393 C 146.712 520.059, 145.964 519.047, 145.921 518.143 C 145.878 517.239, 145.629 517.021, 145.369 517.657 C 145.108 518.293, 145.541 520.358, 146.329 522.245 L 147.763 525.676 165.131 526.335 C 194.107 527.434, 202.972 527.237, 203.646 525.479 C 204.065 524.387, 204.790 525.022, 206.217 527.729 C 210.552 535.953, 216.417 540, 224 540 C 230.142 540, 234.430 537.703, 238.668 532.142 L 242.500 527.114 270.693 527.057 C 298.663 527, 298.899 526.982, 300.443 524.777 C 301.299 523.555, 302 522.212, 302 521.793 C 302 521.373, 288.905 520.911, 272.899 520.765 L 243.799 520.500 241.943 515.611 C 239.662 509.601, 236.721 506.300, 231.500 503.890 C 226.667 501.659, 221.701 501.558, 217.007 503.593 M 221.500 510.787 C 218.547 511.389, 214.185 515.882, 213.492 519.037 C 212.186 524.982, 217.876 532, 224 532 C 226.934 532, 231.742 529.350, 232.970 527.055 C 234.810 523.618, 234.198 517.337, 231.750 514.538 C 229.349 511.793, 224.778 510.120, 221.500 510.787 M 303.624 513.539 C 303.281 514.432, 303.029 515.689, 303.063 516.332 C 303.098 516.974, 303.558 516.422, 304.085 515.105 C 304.612 513.787, 304.864 512.531, 304.645 512.312 C 304.426 512.093, 303.966 512.645, 303.624 513.539 M 161.250 516.747 C 167.712 516.921, 178.287 516.921, 184.750 516.747 C 191.213 516.573, 185.925 516.430, 173 516.430 C 160.075 516.430, 154.787 516.573, 161.250 516.747 M 151 533.236 C 151 537.549, 153.961 546.271, 157.995 553.840 C 165.177 567.315, 176.538 577.925, 191.535 585.165 C 199.449 588.984, 209.180 591.137, 210.305 589.316 C 210.621 588.804, 211.179 586.134, 211.544 583.382 L 212.207 578.379 207.854 577.091 C 189.920 571.785, 171.319 555.195, 164.523 538.443 C 162.277 532.909, 161.849 532.458, 158.306 531.895 C 156.213 531.562, 153.713 530.951, 152.750 530.538 C 151.276 529.905, 151 530.331, 151 533.236 M 291.168 545.452 C 286.172 559.383, 276.068 571.166, 262.401 579 C 253.289 584.223, 240.168 588.948, 234.691 588.979 C 232.411 588.991, 231.130 589.401, 231.500 590 C 233.309 592.928, 248.611 588.936, 261.500 582.174 C 269.946 577.743, 281.242 567.276, 285.877 559.586 C 289.319 553.876, 294.306 541.419, 293.781 539.844 C 293.622 539.365, 292.446 541.889, 291.168 545.452 M 210.441 544.445 C 211.509 545.300, 212.821 546, 213.358 546 C 214.628 546, 214.061 545.538, 211 544.080 C 208.643 542.958, 208.611 542.978, 210.441 544.445 M 215.813 546.683 C 216.534 546.972, 217.397 546.936, 217.729 546.604 C 218.061 546.272, 217.471 546.036, 216.417 546.079 C 215.252 546.127, 215.015 546.364, 215.813 546.683 M 221.269 547.693 C 222.242 547.947, 223.592 547.930, 224.269 547.656 C 224.946 547.382, 224.150 547.175, 222.500 547.195 C 220.850 547.215, 220.296 547.439, 221.269 547.693 M 217 566.346 C 217 574.787, 216.711 585.762, 216.358 590.735 L 215.716 599.776 219.816 600.469 C 222.071 600.850, 224.893 600.851, 226.087 600.472 C 228.205 599.800, 228.243 599.485, 227.640 587.642 C 227.300 580.964, 226.945 570.550, 226.850 564.500 C 226.756 558.450, 226.478 552.938, 226.233 552.250 C 225.967 551.507, 224.003 551, 221.393 551 L 217 551 217 566.346 M 74.898 625.063 C 73.548 625.898, 76.385 627.677, 89.546 634.248 C 106.051 642.489, 153.977 661.036, 169 664.996 C 175.960 666.831, 187.775 671.970, 188.324 673.402 C 188.701 674.386, 185.065 674.992, 172.859 675.981 C 164.081 676.691, 155.460 677.589, 153.700 677.975 C 150.407 678.698, 151.803 678.793, 197.500 680.969 C 228.209 682.431, 307.376 684.181, 326 683.809 L 341.500 683.500 335 680.104 C 331.425 678.237, 325.658 675.748, 322.184 674.574 L 315.867 672.439 335.684 653.520 C 346.583 643.115, 357.678 632.441, 360.339 629.801 L 365.179 625 361.339 624.832 C 349.570 624.318, 75.746 624.539, 74.898 625.063 M 153 690.016 C 129.625 690.300, 164.950 690.566, 231.500 690.607 C 298.050 690.647, 347.550 690.341, 341.500 689.925 C 329.721 689.116, 222.848 689.168, 153 690.016 M 398.245 693.250 C 398.734 694.736, 403 695.567, 403 694.177 C 403 693.207, 400.691 692, 398.835 692 C 398.284 692, 398.019 692.563, 398.245 693.250" stroke="none" fill="inherit" fill-rule="evenodd"></path>
</g></svg><svg id="name" viewBox="0 0 228.89599609375 46" width="228" height="45.819936473263525" x="96" y="32.50505152621409" data-v-719f541d="" style="fill: rgb(250, 144, 0);"><rect x="0" y="0" width="100%" height="100%" fill="none" data-v-719f541d=""></rect><g data-v-719f541d=""><path xmlns="http://www.w3.org/2000/svg" d="M10.07 35.24Q4.88 35.24 2.44 32.61Q0 29.99 0 23.92L0 23.92Q0 19.09 1.63 13.52Q3.27 7.96 6.88 3.98Q10.49 0 16.05 0L16.05 0Q19.50 0 21.62 1.52Q23.74 3.04 23.74 6.16L23.74 6.16Q23.74 8.14 22.95 9.27Q22.17 10.40 20.52 10.40L20.52 10.40Q18.86 10.40 17.89 9.20L17.89 9.20Q18.72 8.79 19.37 7.54Q20.01 6.30 20.01 4.97L20.01 4.97Q20.01 3.73 19.34 2.94Q18.68 2.16 17.20 2.16L17.20 2.16Q14.77 2.16 12.56 5.50Q10.35 8.83 8.99 13.89Q7.64 18.95 7.64 23.64L7.64 23.64Q7.64 27.14 8.83 28.98Q10.03 30.82 13.16 30.82L13.16 30.82Q15.87 30.82 18.17 29.62Q20.47 28.43 22.13 26.22L22.13 26.22L23.18 26.68Q22.03 29.58 19.78 31.51Q17.53 33.44 14.95 34.34Q12.37 35.24 10.07 35.24L10.07 35.24ZM26.54 34.78Q24.33 34.78 22.98 33.40Q21.62 32.02 21.62 29.26L21.62 29.26Q21.62 28.11 21.99 26.27L21.99 26.27L25.12 11.50L31.74 11.50L28.43 27.14Q28.29 27.83 28.29 28.43L28.29 28.43Q28.29 30.31 29.67 30.31L29.67 30.31Q30.96 30.31 31.88 29.23Q32.80 28.15 33.35 26.27L33.35 26.27L36.48 11.50L43.10 11.50L39.79 27.14Q39.61 27.83 39.61 28.61L39.61 28.61Q39.61 29.53 40.04 29.92Q40.48 30.31 41.49 30.31L41.49 30.31Q42.78 30.31 43.72 29.21Q44.67 28.11 45.22 26.27L45.22 26.27L47.15 26.27Q45.45 31.23 42.94 33.01Q40.43 34.78 37.90 34.78L37.90 34.78Q35.93 34.78 34.75 33.67Q33.58 32.57 33.35 30.41L33.35 30.41Q31.79 32.94 30.06 33.86Q28.34 34.78 26.54 34.78L26.54 34.78ZM51.34 34.78Q48.21 34.78 46.55 33.23Q44.90 31.69 44.90 28.89L44.90 28.89Q44.90 27.51 45.22 26.27L45.22 26.27L50.14 3.22L56.95 2.30L54.74 12.65Q56.03 11.87 56.86 11.62Q57.68 11.36 58.51 11.36L58.51 11.36Q63.94 11.36 63.94 19.23L63.94 19.23Q63.94 22.40 62.72 26.01Q61.50 29.62 58.67 32.20Q55.84 34.78 51.34 34.78L51.34 34.78ZM53.91 30.31Q55.34 30.31 56.58 28.54Q57.82 26.77 58.56 24.13Q59.29 21.48 59.29 19.04L59.29 19.04Q59.29 17.20 58.65 15.92Q58.01 14.63 56.86 14.63L56.86 14.63Q56.17 14.63 55.32 14.84Q54.46 15.04 54.14 15.46L54.14 15.46L51.61 27.14Q51.47 27.69 51.47 28.20L51.47 28.20Q51.47 30.31 53.91 30.31L53.91 30.31ZM73.32 9.02Q71.81 9.02 70.75 7.96Q69.69 6.90 69.69 5.38L69.69 5.38Q69.69 3.86 70.75 2.78Q71.81 1.70 73.32 1.70L73.32 1.70Q74.84 1.70 75.92 2.78Q77.00 3.86 77.00 5.38L77.00 5.38Q77.00 6.90 75.92 7.96Q74.84 9.02 73.32 9.02L73.32 9.02ZM70.20 34.78Q67.99 34.78 66.63 33.40Q65.27 32.02 65.27 29.26L65.27 29.26Q65.27 28.11 65.64 26.27L65.64 26.27L68.77 11.50L75.39 11.50L72.08 27.14Q71.90 27.83 71.90 28.61L71.90 28.61Q71.90 29.53 72.33 29.92Q72.77 30.31 73.78 30.31L73.78 30.31Q75.12 30.31 76.27 29.19Q77.42 28.06 77.92 26.27L77.92 26.27L79.86 26.27Q78.15 31.23 75.49 33.01Q72.82 34.78 70.20 34.78L70.20 34.78ZM82.48 34.78Q80.27 34.78 78.91 33.40Q77.56 32.02 77.56 29.26L77.56 29.26Q77.56 28.11 77.92 26.27L77.92 26.27L80.68 13.34L79.17 13.34L79.53 11.50L81.05 11.50L82.43 5.15L89.24 4.23L87.68 11.50L90.44 11.50L90.07 13.34L87.31 13.34L84.36 27.14Q84.18 27.83 84.18 28.61L84.18 28.61Q84.18 29.53 84.62 29.92Q85.05 30.31 86.07 30.31L86.07 30.31Q87.40 30.31 88.55 29.19Q89.70 28.06 90.21 26.27L90.21 26.27L92.14 26.27Q90.44 31.23 87.77 33.01Q85.10 34.78 82.48 34.78L82.48 34.78ZM95.73 34.78Q93.10 34.78 91.36 32.98Q89.61 31.19 89.61 27.37L89.61 27.37Q89.61 23.97 90.96 20.22Q92.32 16.47 95.01 13.87Q97.70 11.27 101.43 11.27L101.43 11.27Q103.32 11.27 104.24 11.91Q105.16 12.56 105.16 13.62L105.16 13.62L105.16 13.94L105.66 11.50L112.29 11.50L108.97 27.14Q108.79 27.83 108.79 28.61L108.79 28.61Q108.79 30.59 110.68 30.59L110.68 30.59Q111.96 30.59 112.91 29.39Q113.85 28.20 114.40 26.27L114.40 26.27L116.33 26.27Q114.63 31.23 112.12 33.01Q109.62 34.78 107.09 34.78L107.09 34.78Q105.16 34.78 103.98 33.70Q102.81 32.61 102.58 30.54L102.58 30.54Q101.25 32.43 99.61 33.60Q97.98 34.78 95.73 34.78L95.73 34.78ZM98.72 30.31Q99.87 30.31 100.99 29.23Q102.12 28.15 102.53 26.27L102.53 26.27L104.74 15.87Q104.74 15.27 104.28 14.70Q103.82 14.12 102.86 14.12L102.86 14.12Q101.02 14.12 99.54 16.26Q98.07 18.40 97.24 21.41Q96.42 24.43 96.42 26.73L96.42 26.73Q96.42 29.03 97.08 29.67Q97.75 30.31 98.72 30.31L98.72 30.31ZM135.33 35.24Q130.13 35.24 127.70 32.61Q125.26 29.99 125.26 23.92L125.26 23.92Q125.26 19.09 126.89 13.52Q128.52 7.96 132.13 3.98Q135.75 0 141.31 0L141.31 0Q144.76 0 146.88 1.52Q148.99 3.04 148.99 6.16L148.99 6.16Q148.99 8.14 148.21 9.27Q147.43 10.40 145.77 10.40L145.77 10.40Q144.12 10.40 143.15 9.20L143.15 9.20Q143.98 8.79 144.62 7.54Q145.27 6.30 145.27 4.97L145.27 4.97Q145.27 3.73 144.60 2.94Q143.93 2.16 142.46 2.16L142.46 2.16Q140.02 2.16 137.82 5.50Q135.61 8.83 134.25 13.89Q132.89 18.95 132.89 23.64L132.89 23.64Q132.89 27.14 134.09 28.98Q135.29 30.82 138.41 30.82L138.41 30.82Q141.13 30.82 143.43 29.62Q145.73 28.43 147.38 26.22L147.38 26.22L148.44 26.68Q147.29 29.58 145.04 31.51Q142.78 33.44 140.21 34.34Q137.63 35.24 135.33 35.24L135.33 35.24ZM153.96 34.68Q150.56 34.68 148.58 32.94Q146.60 31.19 146.60 27.42L146.60 27.42Q146.60 24.29 147.89 20.47Q149.18 16.65 152.03 13.87Q154.88 11.09 159.21 11.09L159.21 11.09Q165.09 11.09 165.09 18.45L165.09 18.45L165.09 18.49Q165.23 18.54 165.60 18.54L165.60 18.54Q167.12 18.54 169.10 17.73Q171.07 16.93 172.68 15.78L172.68 15.78L173.10 17.02Q171.76 18.45 169.62 19.44Q167.49 20.42 164.96 20.84L164.96 20.84Q164.59 25.02 163.07 28.15Q161.55 31.28 159.16 32.98Q156.77 34.68 153.96 34.68L153.96 34.68ZM155.80 30.54Q156.91 30.54 158.01 29.28Q159.11 28.01 159.94 25.83Q160.77 23.64 161.14 20.98L161.14 20.98Q159.90 20.70 159.90 19.04L159.90 19.04Q159.90 17.16 161.32 16.56L161.32 16.56Q161.23 15.04 160.86 14.47Q160.49 13.89 159.57 13.89L159.57 13.89Q158.06 13.89 156.63 16.10Q155.20 18.31 154.33 21.39Q153.46 24.47 153.46 26.82L153.46 26.82Q153.46 29.03 153.96 29.79Q154.47 30.54 155.80 30.54L155.80 30.54ZM163.30 46Q161.14 46 159.50 44.60Q157.87 43.19 157.87 41.03L157.87 41.03Q157.87 39.05 158.88 37.77Q159.90 36.48 161.51 35.72Q163.12 34.96 165.78 34.13L165.78 34.13L171.35 7.87Q172.27 3.45 174.59 1.75Q176.92 0.05 179.72 0.05L179.72 0.05Q181.88 0.05 183.52 1.45Q185.15 2.85 185.15 5.01L185.15 5.01Q185.15 6.07 185.01 6.90L185.01 6.90L182.85 6.90Q182.94 5.89 182.94 5.66L182.94 5.66Q182.94 4.92 182.44 4.51Q181.93 4.09 181.19 4.09L181.19 4.09Q180.23 4.09 179.31 4.95Q178.39 5.80 177.97 7.87L177.97 7.87L177.19 11.50L180.55 11.50L180.23 13.34L176.82 13.34L171.53 38.18Q170.61 42.64 168.36 44.32Q166.11 46 163.30 46L163.30 46ZM162.24 41.91Q164.08 41.91 164.86 38.32L164.86 38.32L165.46 35.65Q163.02 36.48 161.71 37.56Q160.40 38.64 160.40 40.39L160.40 40.39Q160.40 40.94 160.95 41.42Q161.51 41.91 162.24 41.91L162.24 41.91ZM175.58 46Q173.42 46 171.79 44.60Q170.15 43.19 170.15 41.03L170.15 41.03Q170.15 39.05 171.17 37.77Q172.18 36.48 173.79 35.72Q175.40 34.96 178.07 34.13L178.07 34.13L183.63 7.87Q184.55 3.45 186.87 1.75Q189.20 0.05 192.00 0.05L192.00 0.05Q194.17 0.05 195.80 1.45Q197.43 2.85 197.43 5.01L197.43 5.01Q197.43 6.07 197.29 6.90L197.29 6.90L195.13 6.90Q195.22 5.89 195.22 5.66L195.22 5.66Q195.22 4.92 194.72 4.51Q194.21 4.09 193.48 4.09L193.48 4.09Q192.51 4.09 191.59 4.95Q190.67 5.80 190.26 7.87L190.26 7.87L189.47 11.50L192.83 11.50L192.51 13.34L189.11 13.34L183.82 38.18Q182.90 42.64 180.64 44.32Q178.39 46 175.58 46L175.58 46ZM174.52 41.91Q176.36 41.91 177.15 38.32L177.15 38.32L177.74 35.65Q175.31 36.48 173.99 37.56Q172.68 38.64 172.68 40.39L172.68 40.39Q172.68 40.94 173.24 41.42Q173.79 41.91 174.52 41.91L174.52 41.91ZM198.58 34.78Q195.18 34.78 193.29 33.01Q191.41 31.23 191.41 27.46L191.41 27.46Q191.41 24.29 192.65 20.47Q193.89 16.65 196.70 13.87Q199.50 11.09 203.83 11.09L203.83 11.09Q208.89 11.09 208.89 15.50L208.89 15.50Q208.89 18.08 207.41 20.24Q205.94 22.40 203.50 23.71Q201.07 25.02 198.31 25.21L198.31 25.21Q198.21 26.59 198.21 27.05L198.21 27.05Q198.21 29.30 199.00 30.11Q199.78 30.91 201.53 30.91L201.53 30.91Q204.01 30.91 205.78 29.76Q207.55 28.61 209.67 26.27L209.67 26.27L211.23 26.27Q206.13 34.78 198.58 34.78L198.58 34.78ZM198.67 23Q200.38 22.91 201.92 21.80Q203.46 20.70 204.40 19.00Q205.34 17.30 205.34 15.41L205.34 15.41Q205.34 13.52 204.19 13.52L204.19 13.52Q202.54 13.52 200.95 16.42Q199.36 19.32 198.67 23L198.67 23ZM216.25 34.78Q212.84 34.78 210.96 33.01Q209.07 31.23 209.07 27.46L209.07 27.46Q209.07 24.29 210.31 20.47Q211.55 16.65 214.36 13.87Q217.17 11.09 221.49 11.09L221.49 11.09Q226.55 11.09 226.55 15.50L226.55 15.50Q226.55 18.08 225.08 20.24Q223.61 22.40 221.17 23.71Q218.73 25.02 215.97 25.21L215.97 25.21Q215.88 26.59 215.88 27.05L215.88 27.05Q215.88 29.30 216.66 30.11Q217.44 30.91 219.19 30.91L219.19 30.91Q221.67 30.91 223.44 29.76Q225.22 28.61 227.33 26.27L227.33 26.27L228.90 26.27Q223.79 34.78 216.25 34.78L216.25 34.78ZM216.34 23Q218.04 22.91 219.58 21.80Q221.12 20.70 222.06 19.00Q223.01 17.30 223.01 15.41L223.01 15.41Q223.01 13.52 221.86 13.52L221.86 13.52Q220.20 13.52 218.62 16.42Q217.03 19.32 216.34 23L216.34 23Z"></path></g></svg><!----></svg>